<svg xmlns="http://www.w3.org/2000/svg" version="1.0" width="200.000000pt" height="200.000000pt" viewBox="0 0 200.000000 200.000000">
  <g transform="translate(0.000000,248.000000) scale(0.100000,-0.100000)">
    <path fill="black" d="M1414 2183 c-131 -159 -294 -356 -363 -439 l-125 -151 -56 13 c-101 23 -168 54 -220 101 -57 51 -61 50 -80 -17 -32 -112 19 -203 143 -260 l58 -26 -128 -130 c-219 -223 -368 -324 -478 -324 -57 0 -109 26 -127 65 -18 39 -28 19 -28 -53 0 -119 48 -171 161 -174 76 -2 147 25 253 95 103 70 309 265 431 411 52 62 87 95 100 96 20 0 161 -36 176 -46 4 -2 -35 -97 -87 -210 -52 -113 -98 -219 -101 -235 -7 -35 13 -86 38 -99 10 -6 32 -10 48 -10 40 0 45 8 168 277 l97 212 40 -32 c22 -17 58 -55 80 -84 22 -29 44 -49 48 -45 14 14 31 169 23 217 -7 49 -31 81 -84 116 l-24 15 160 354 c252 559 256 567 243 590 -15 28 -69 60 -102 60 -22 0 -61 -42 -264 -287z m72 -65 c-7 -18 -55 -125 -105 -238 -51 -113 -106 -238 -123 -278 l-30 -73 -41 7 c-23 3 -58 12 -79 18 l-37 11 212 292 c116 161 213 293 215 293 1 0 -4 -15 -12 -32z" />
  </g>
</svg>